<svg height="512pt" viewBox="0 -6 512 512" width="512pt" xmlns="http://www.w3.org/2000/svg"><path d="m313.0625 467.027344h-114.125l35.449219-176.480469h43.226562zm0 0" fill="#62a6fd"/><path d="m270.292969 290.546875-35.441407 176.480469h-35.910156l35.441406-176.480469zm0 0" fill="#4394fb"/><path d="m346.550781 492.679688h-181.101562c-6.65625 0-12.054688-5.398438-12.054688-12.054688v-15.390625c0-6.660156 5.398438-12.058594 12.054688-12.058594h181.101562c6.65625 0 12.054688 5.398438 12.054688 12.058594v15.390625c0 6.65625-5.398438 12.054688-12.054688 12.054688zm0 0" fill="#81b8fd"/><path d="m201.363281 492.679688h-35.914062c-6.65625 0-12.054688-5.398438-12.054688-12.054688v-15.390625c0-6.660156 5.398438-12.058594 12.054688-12.058594h35.914062c-6.660156 0-12.058593 5.398438-12.058593 12.058594v15.390625c0 6.65625 5.398437 12.054688 12.058593 12.054688zm0 0" fill="#62a6fd"/><path d="m504.304688 26.195312v320.210938c0 10.21875-8.28125 18.5-18.5 18.5h-459.609376c-10.21875 0-18.5-8.28125-18.5-18.5v-320.210938c0-10.21875 8.28125-18.5 18.5-18.5h459.609376c10.21875 0 18.5 8.28125 18.5 18.5zm0 0" fill="#c0dbff"/><path d="m62.105469 364.90625h-35.910157c-10.21875 0-18.5-8.28125-18.5-18.5v-320.210938c0-10.21875 8.28125-18.5 18.5-18.5h35.910157c-10.21875 0-18.5 8.28125-18.5 18.5v320.210938c0 10.21875 8.28125 18.5 18.5 18.5zm0 0" fill="#a0cafe"/><path d="m504.304688 300.734375v45.671875c0 10.21875-8.28125 18.5-18.5 18.5h-459.609376c-10.21875 0-18.5-8.28125-18.5-18.5v-45.671875zm0 0" fill="#81b8fd"/><path d="m471.34375 332.820312c0 6.867188-5.570312 12.4375-12.441406 12.4375s-12.441406-5.570312-12.441406-12.4375c0-6.871093 5.570312-12.441406 12.441406-12.441406s12.441406 5.570313 12.441406 12.441406zm0 0" fill="#ffe046"/><path d="m418.5 332.820312c0 6.867188-5.570312 12.4375-12.441406 12.4375s-12.4375-5.570312-12.4375-12.4375c0-6.871093 5.566406-12.441406 12.4375-12.441406s12.441406 5.570313 12.441406 12.441406zm0 0" fill="#ffe046"/><path d="m62.105469 364.90625h-35.910157c-10.21875 0-18.5-8.28125-18.5-18.5v-45.671875h35.910157v45.671875c0 10.21875 8.28125 18.5 18.5 18.5zm0 0" fill="#62a6fd"/><path d="m62.105469 364.90625h-35.910157c-10.21875 0-18.5-8.28125-18.5-18.5v-45.671875h35.910157v45.671875c0 10.21875 8.28125 18.5 18.5 18.5zm0 0" fill="#62a6fd"/><path d="m115.867188 268.660156v-229.496094c0-4.816406 3.902343-8.71875 8.71875-8.71875h157.089843c4.8125 0 8.71875 3.902344 8.71875 8.71875v238.214844h-165.808593c-4.816407 0-8.71875-3.90625-8.71875-8.71875zm0 0" fill="#fff5f4"/><path d="m148.6875 277.378906h-24.101562c-4.816407 0-8.71875-3.902344-8.71875-8.71875v-229.5c0-4.8125 3.902343-8.71875 8.71875-8.71875h24.101562c-4.816406 0-8.71875 3.90625-8.71875 8.71875v229.5c0 4.816406 3.902344 8.71875 8.71875 8.71875zm0 0" fill="#ebe0da"/><path d="m220.683594 61.445312v54.65625c0 4.050782-3.3125 7.363282-7.363282 7.363282h-66.535156c-4.050781 0-7.363281-3.3125-7.363281-7.363282v-54.65625c0-4.046874 3.3125-7.359374 7.363281-7.359374h66.535156c4.050782 0 7.363282 3.308593 7.363282 7.359374zm0 0" fill="#c0dbff"/><path d="m173.230469 95.792969c-4.738281-2.464844-7.984375-7.414063-7.984375-13.132813 0-8.171875 6.632812-14.804687 14.808594-14.804687 8.179687 0 14.804687 6.632812 14.804687 14.804687 0 5.714844-3.242187 10.667969-7.980469 13.132813 8.546875 5.980469 14.34375 17.691406 18.449219 27.671875h-50.417969c3.3125-8.214844 9.269532-21.3125 18.320313-27.671875zm0 0" fill="#81b8fd"/><path d="m396.132812 208.015625c0 35.164063-28.503906 63.667969-63.667968 63.667969-35.164063 0-63.671875-28.503906-63.671875-63.667969s28.507812-63.671875 63.671875-63.671875c35.164062 0 63.667968 28.507812 63.667968 63.671875zm0 0" fill="#fff5f4"/><path d="m350.417969 269.113281c-5.695313 1.683594-11.71875 2.574219-17.957031 2.574219-35.164063 0-63.667969-28.511719-63.667969-63.675781 0-35.164063 28.503906-63.667969 63.667969-63.667969 6.238281 0 12.261718.894531 17.957031 2.566406-26.421875 7.746094-45.710938 32.175782-45.710938 61.101563s19.289063 53.355469 45.710938 61.101562zm0 0" fill="#ebe0da"/><path d="m120.992188 22.746094c-7.070313 0-12.824219 5.757812-12.824219 12.828125v236.679687c0 7.066406 5.753906 12.824219 12.824219 12.824219h164.269531c7.070312 0 12.828125-5.757813 12.828125-12.824219v-1.714844c47.105468 26.066407 105.742187-8.140624 105.742187-62.527343 0-39.347657-32.011719-71.363281-71.371093-71.363281-12.457032 0-24.171876 3.203124-34.371094 8.847656v-109.921875c0-7.070313-5.757813-12.828125-12.828125-12.828125zm161.707031 246.941406h-159.140625v-231.550781h159.140625v118.777343c-13.320313 12.960938-21.601563 31.078126-21.601563 51.097657s8.28125 38.136719 21.601563 51.097656zm49.761719-117.648438c30.863281 0 55.980468 25.109376 55.980468 55.972657 0 46.636719-53.890625 72.613281-90.351562 44.152343-42.308594-32.988281-18.1875-100.125 34.371094-100.125zm0 0"/><path d="m241.800781 64.152344h26.996094c4.25 0 7.695313-3.445313 7.695313-7.695313s-3.445313-7.695312-7.695313-7.695312h-26.996094c-4.25 0-7.695312 3.445312-7.695312 7.695312s3.445312 7.695313 7.695312 7.695313zm0 0"/><path d="m241.800781 96.46875h26.996094c4.25 0 7.695313-3.445312 7.695313-7.695312s-3.445313-7.695313-7.695313-7.695313h-26.996094c-4.25 0-7.695312 3.445313-7.695312 7.695313s3.445312 7.695312 7.695312 7.695312zm0 0"/><path d="m241.800781 128.785156h26.996094c4.25 0 7.695313-3.445312 7.695313-7.695312s-3.445313-7.695313-7.695313-7.695313h-26.996094c-4.25 0-7.695312 3.445313-7.695312 7.695313s3.445312 7.695312 7.695312 7.695312zm0 0"/><path d="m146.785156 131.160156h66.542969c8.300781 0 15.050781-6.75 15.050781-15.0625v-54.648437c0-8.308594-6.75-15.0625-15.050781-15.0625h-66.542969c-8.300781 0-15.0625 6.753906-15.0625 15.0625v54.648437c0 8.3125 6.761719 15.0625 15.0625 15.0625zm20.859375-15.390625c3.789063-5.773437 7.507813-9.238281 9.421875-10.804687 1.925782.261718 3.910156.285156 5.976563 0 1.917969 1.570312 5.632812 5.035156 9.417969 10.804687zm45.34375-53.992187v53.992187h-2.855469c-4.195312-8.589843-8.992187-14.644531-12.871093-18.625 3.300781-3.910156 5.292969-8.964843 5.292969-14.476562 0-9.46875-5.871094-17.574219-14.160157-20.890625zm-32.9375 13.78125c3.921875 0 7.113281 3.179687 7.113281 7.109375 0 3.921875-3.191406 7.113281-7.113281 7.113281-3.917969 0-7.109375-3.191406-7.109375-7.113281 0-3.929688 3.191406-7.109375 7.109375-7.109375zm-32.933593-13.78125h24.59375c-8.292969 3.316406-14.160157 11.421875-14.160157 20.890625 0 5.507812 1.988281 10.574219 5.289063 14.484375-3.878906 3.980468-8.671875 10.03125-12.863282 18.617187h-2.859374zm0 0"/><path d="m268.796875 141.882812h-129.371094c-4.253906 0-7.695312 3.441407-7.695312 7.695313 0 4.25 3.441406 7.695313 7.695312 7.695313h129.371094c4.25 0 7.695313-3.445313 7.695313-7.695313 0-4.253906-3.445313-7.695313-7.695313-7.695313zm0 0"/><path d="m251.441406 170.367188h-112.015625c-4.253906 0-7.695312 3.445312-7.695312 7.695312 0 4.253906 3.441406 7.695312 7.695312 7.695312h112.015625c4.25 0 7.695313-3.441406 7.695313-7.695312 0-4.25-3.445313-7.695312-7.695313-7.695312zm0 0"/><path d="m209.664062 227.339844h-70.238281c-4.253906 0-7.695312 3.445312-7.695312 7.695312 0 4.253906 3.441406 7.695313 7.695312 7.695313h70.238281c4.253907 0 7.695313-3.441407 7.695313-7.695313 0-4.25-3.445313-7.695312-7.695313-7.695312zm0 0"/><path d="m301.40625 215.710938h47.058594l-7.941406 10.984374c-2.492188 3.441407-1.71875 8.253907 1.730468 10.746094 3.445313 2.488282 8.253906 1.714844 10.742188-1.730468 24.371094-33.710938 24.144531-21.992188 0-55.394532-2.492188-3.445312-7.300782-4.21875-10.742188-1.726562-3.445312 2.488281-4.21875 7.300781-1.730468 10.742187l7.941406 10.988281h-47.058594c-4.25 0-7.695312 3.445313-7.695312 7.695313s3.445312 7.695313 7.695312 7.695313zm0 0"/><path d="m7.695312 207.058594c4.246094 0 7.695313-3.449219 7.695313-7.695313v-173.167969c0-5.960937 4.84375-10.804687 10.804687-10.804687h259.488282c4.246094 0 7.695312-3.449219 7.695312-7.695313 0-4.246093-3.449218-7.695312-7.695312-7.695312h-259.488282c-14.445312 0-26.195312 11.75-26.195312 26.195312v173.167969c0 4.246094 3.449219 7.695313 7.695312 7.695313zm0 0"/><path d="m485.804688 0h-169.339844c-4.246094 0-7.695313 3.449219-7.695313 7.695312 0 4.246094 3.449219 7.695313 7.695313 7.695313h169.339844c5.960937 0 10.804687 4.84375 10.804687 10.804687v266.84375c-9.746094 0-468.785156 0-481.21875 0v-62.894531c0-4.25-3.449219-7.695312-7.695313-7.695312-4.246093 0-7.695312 3.445312-7.695312 7.695312v116.261719c0 14.445312 11.75 26.195312 26.195312 26.195312h183.859376l-14.644532 72.878907h-29.960937c-10.882813 0-19.75 8.867187-19.75 19.753906v15.390625c0 10.882812 8.867187 19.75 19.75 19.75h181.101562c10.882813 0 19.75-8.867188 19.75-19.75v-15.390625c0-10.886719-8.867187-19.753906-19.75-19.753906h-29.960937l-14.644532-72.878907h183.859376c14.445312 0 26.195312-11.75 26.195312-26.195312 0-6.203125 0-317.019531 0-320.210938 0-14.445312-11.75-26.195312-26.195312-26.195312zm-139.253907 460.871094c2.398438 0 4.359375 1.960937 4.359375 4.363281v15.390625c0 2.398438-1.960937 4.359375-4.359375 4.359375h-181.101562c-2.398438 0-4.359375-1.960937-4.359375-4.359375v-15.390625c0-2.402344 1.960937-4.363281 4.359375-4.363281zm-135.441406-15.390625 14.644531-72.878907h60.492188l14.644531 72.878907zm285.5-99.074219c0 5.960938-4.84375 10.804688-10.804687 10.804688-4.648438 0-449.328126 0-459.609376 0-5.960937 0-10.804687-4.84375-10.804687-10.804688v-37.976562h481.21875zm0 0"/><path d="m458.902344 352.953125c11.101562 0 20.136718-9.03125 20.136718-20.132813 0-11.105468-9.035156-20.136718-20.136718-20.136718-11.101563 0-20.136719 9.03125-20.136719 20.136718 0 11.101563 9.035156 20.132813 20.136719 20.132813zm0-24.878906c2.617187 0 4.746094 2.128906 4.746094 4.746093 0 2.613282-2.128907 4.742188-4.746094 4.742188-2.617188 0-4.746094-2.128906-4.746094-4.742188 0-2.617187 2.128906-4.746093 4.746094-4.746093zm0 0"/><path d="m406.058594 352.953125c11.101562 0 20.144531-9.03125 20.144531-20.132813 0-11.101562-9.042969-20.140624-20.144531-20.140624-11.101563 0-20.140625 9.039062-20.140625 20.140624 0 11.101563 9.039062 20.132813 20.140625 20.132813zm0-24.882813c2.617187 0 4.753906 2.132813 4.753906 4.75 0 2.617188-2.136719 4.742188-4.753906 4.742188-2.613282 0-4.75-2.125-4.75-4.742188 0-2.617187 2.136718-4.75 4.75-4.75zm0 0"/></svg>