<svg height="512" viewBox="0 0 128 128" width="512" xmlns="http://www.w3.org/2000/svg"><path d="m103.024 41.636h-.048v-22.66a6.63 6.63 0 0 0 -13.26 0v1.484l-30.247 13.468h-17.692a18.428 18.428 0 0 0 -9.456 34.255 38.577 38.577 0 0 1 -1.868 5.027 71.4 71.4 0 0 1 -7.015 11.211 4.008 4.008 0 0 0 -3.572-2.221h-10.11a4.021 4.021 0 0 0 -4.016 4.019v29.415a4.021 4.021 0 0 0 4.016 4.017h10.11a4.012 4.012 0 0 0 3.755-2.63 11.02 11.02 0 0 0 7.034 2.63l29.178-.014a5.7 5.7 0 0 0 4.09-9.673 5.83 5.83 0 0 0 1.937-10.1 5.774 5.774 0 0 0 .682-9.743 5.7 5.7 0 0 0 -3.037-10.521h-8.392v-8.78h4.356l30.254 13.472v1.488a6.626 6.626 0 1 0 13.252 0v-22.923h.048a10.612 10.612 0 0 0 0-21.224z" fill="#e6e7e8"/><path d="m117.572 53.377h7.688a1 1 0 0 0 0-2h-7.688a1 1 0 0 0 0 2z" fill="#e6e7e8"/><path d="m118.136 63.785a1 1 0 0 0 -1.127 1.653l7.687 5.243a1 1 0 0 0 1.127-1.653z" fill="#e6e7e8"/><path d="m117.573 41.143a1 1 0 0 0 .563-.174l7.687-5.243a1 1 0 1 0 -1.127-1.653l-7.687 5.244a1 1 0 0 0 .564 1.826z" fill="#e6e7e8"/><path d="m86.715 17.109-31.034 13.819v34.892l31.034 13.819z" fill="#6dc9f7"/><path d="m108.631 48.243a9.611 9.611 0 0 1 -9.607 9.616 9.306 9.306 0 0 1 -1.048-.058v-19.108a9.6 9.6 0 0 1 10.655 9.55z" fill="#fa759e"/><path d="m55.68 30.928h-17.9a17.446 17.446 0 0 0 -17.449 17.446 17.446 17.446 0 0 0 17.446 17.446h17.9z" fill="#6dc9f7"/><path d="m23.331 48.374a17.446 17.446 0 0 1 17.446-17.446h-3a17.446 17.446 0 0 0 0 34.892h3a17.446 17.446 0 0 1 -17.446-17.446z" fill="#fff"/><path d="m92.35 87.406a5.625 5.625 0 0 1 -5.626-5.625l-.008-66.805a5.626 5.626 0 0 1 5.626-5.627h.008a5.626 5.626 0 0 1 5.626 5.626v66.805a5.626 5.626 0 0 1 -5.626 5.626z" fill="#d4fbff"/><path d="m40.528 65.82v10.779h9.585v-10.779h-9.587z" fill="#0089ef"/><path d="m59.505 76.6h-18.977v-10.78h-2.751a17.369 17.369 0 0 1 -8.277-2.086 40.305 40.305 0 0 1 -2.137 5.891 73.57 73.57 0 0 1 -8.481 13.123v28.225a10.582 10.582 0 0 0 7.774 3.677c3.613 0 20.521-.009 29.176-.014a4.7 4.7 0 0 0 4.7-4.7 4.7 4.7 0 0 0 -4.7-4.7h2.361a4.832 4.832 0 0 0 4.832-4.832 4.832 4.832 0 0 0 -4.832-4.832h-1.693l2.636-.007a4.778 4.778 0 0 0 4.764-4.786 4.778 4.778 0 0 0 -4.775-4.779h.38a4.7 4.7 0 0 0 4.7-4.7 4.7 4.7 0 0 0 -4.7-4.7z" fill="#ffd7e5"/><rect fill="#0089ef" height="35.447" rx="3.016" width="16.143" x="2.74" y="79.203"/><g fill="#3a2c60"><path d="m99.024 37.636h-.048v-22.661a6.63 6.63 0 0 0 -13.26 0v1.485l-30.248 13.468h-17.691a18.427 18.427 0 0 0 -9.456 34.254 38.738 38.738 0 0 1 -1.868 5.028 71.236 71.236 0 0 1 -7.017 11.206 4.01 4.01 0 0 0 -3.57-2.213h-10.11a4.021 4.021 0 0 0 -4.016 4.016v29.416a4.02 4.02 0 0 0 4.016 4.015h10.11a4.012 4.012 0 0 0 3.755-2.63 11 11 0 0 0 7.034 2.63l29.178-.013a5.7 5.7 0 0 0 4.09-9.672 5.831 5.831 0 0 0 1.936-10.1 5.774 5.774 0 0 0 .684-9.743 5.7 5.7 0 0 0 -3.037-10.522h-8.393v-8.78h4.355l30.255 13.472v1.488a6.627 6.627 0 0 0 13.253 0v-22.923h.048a10.612 10.612 0 0 0 0-21.223zm-81.141 74a2.018 2.018 0 0 1 -2.017 2.015h-10.11a2.018 2.018 0 0 1 -2.016-2.015v-29.417a2.018 2.018 0 0 1 2.016-2.019h10.11a2.019 2.019 0 0 1 2.017 2.016zm45.323-30.336a3.7 3.7 0 0 1 -3.7 3.7h-1.673-.01-6.554a1 1 0 0 0 0 2h6.543.01 1.3a3.778 3.778 0 0 1 .009 7.556l-2.635.006h-.01-5.22a1 1 0 0 0 0 2h5.234.01 1.684a3.832 3.832 0 0 1 0 7.664h-3.55-.009-3.366a1 1 0 1 0 0 2h3.382.01 1.167a3.705 3.705 0 0 1 0 7.41l-29.177.013a9.305 9.305 0 0 1 -6.772-3.077v-27.472a74.443 74.443 0 0 0 8.39-13.064 40.485 40.485 0 0 0 1.85-4.881c.008 0 .018-.007.027-.01a18.307 18.307 0 0 0 7.627 1.671h1.75v9.784a1 1 0 0 0 1 1h18.983a3.7 3.7 0 0 1 3.7 3.7zm-14.093-5.7h-7.586v-8.78h7.586zm5.567-10.78h-16.9a16.446 16.446 0 0 1 0-32.892h16.9zm42.3 16.96a4.627 4.627 0 0 1 -9.253 0v-30.619a1 1 0 0 0 -2 0v26.942l-29.047-12.932v-33.594l29.036-12.929v10.576a1 1 0 1 0 2 0v-14.248a4.63 4.63 0 0 1 9.26 0zm2.048-24.921h-.048v-17.223h.048a8.612 8.612 0 0 1 0 17.223z"/><path d="m113.572 49.377h7.688a1 1 0 0 0 0-2h-7.688a1 1 0 0 0 0 2z"/><path d="m114.136 59.785a1 1 0 1 0 -1.127 1.652l7.687 5.245a1 1 0 1 0 1.127-1.653z"/><path d="m113.573 37.142a1 1 0 0 0 .563-.173l7.687-5.244a1 1 0 1 0 -1.127-1.652l-7.687 5.243a1 1 0 0 0 .564 1.826z"/><path d="m86.718 32.521a1 1 0 0 0 -1 1v13.717a1 1 0 0 0 2 0v-13.717a1 1 0 0 0 -1-1z"/></g></svg>