<svg id="Capa_1" enable-background="new 0 0 512 512" height="512" viewBox="0 0 512 512" width="512" xmlns="http://www.w3.org/2000/svg"><g><path d="m256 104.5v303c83.671 0 151.5-67.829 151.5-151.5s-67.829-151.5-151.5-151.5z" fill="#54a5ff"/><path d="m377.5 256c0-83.671-54.397-151.5-121.5-151.5-83.671 0-151.5 67.829-151.5 151.5s67.829 151.5 151.5 151.5c67.103 0 121.5-67.829 121.5-151.5z" fill="#89c1ff"/><path d="m256 164.5v183c50.534 0 91.5-40.966 91.5-91.5s-40.966-91.5-91.5-91.5z" fill="#f0224e"/><path d="m317.5 256c0-50.534-27.534-91.5-61.5-91.5-50.534 0-91.5 40.966-91.5 91.5s40.966 91.5 91.5 91.5c33.966 0 61.5-40.966 61.5-91.5z" fill="#ff4c50"/><circle cx="256" cy="256" fill="#ffd17e" r="31.5"/><path d="m256 7.5c-137.243 0-248.5 111.257-248.5 248.5s111.257 248.5 248.5 248.5 248.5-111.257 248.5-248.5-111.257-248.5-248.5-248.5zm15 466.478v-36.478h-30v36.478c-108.718-7.373-195.605-94.26-202.978-202.978h36.478v-30h-36.478c7.374-108.718 94.26-195.605 202.978-202.978v36.478h30v-36.478c108.718 7.374 195.605 94.26 202.978 202.978h-36.478v30h36.478c-7.374 108.718-94.26 195.605-202.978 202.978z" fill="#dae0e7"/><path d="m256 355c54.589 0 99-44.411 99-99s-44.411-99-99-99-99 44.411-99 99 44.411 99 99 99zm0-183c46.318 0 84 37.682 84 84s-37.682 84-84 84-84-37.682-84-84 37.682-84 84-84z"/><path d="m256 415c87.673 0 159-71.327 159-159s-71.327-159-159-159-159 71.327-159 159 71.327 159 159 159zm0-303c79.402 0 144 64.598 144 144s-64.598 144-144 144-144-64.598-144-144 64.598-144 144-144z"/><path d="m256 295c21.505 0 39-17.495 39-39s-17.495-39-39-39-39 17.495-39 39 17.495 39 39 39zm0-63c13.234 0 24 10.766 24 24s-10.766 24-24 24-24-10.766-24-24 10.766-24 24-24z"/><path d="m437.02 74.98c-48.353-48.351-112.64-74.98-181.02-74.98s-132.667 26.629-181.02 74.98c-48.351 48.353-74.98 112.64-74.98 181.02s26.629 132.667 74.98 181.02c48.353 48.351 112.64 74.98 181.02 74.98s132.667-26.629 181.02-74.98c48.351-48.353 74.98-112.64 74.98-181.02s-26.629-132.667-74.98-181.02zm-181.02 422.02c-132.888 0-241-108.112-241-241s108.112-241 241-241 241 108.112 241 241-108.112 241-241 241z"/><path d="m473.978 263.5h-28.978v-15h28.978c2.077 0 4.062-.861 5.48-2.379s2.144-3.556 2.003-5.628c-3.689-54.391-27.009-105.634-65.664-144.289s-89.899-61.975-144.29-65.664c-2.069-.139-4.11.585-5.628 2.003s-2.379 3.403-2.379 5.48v28.977h-15v-28.978c0-2.077-.861-4.062-2.379-5.48s-3.557-2.137-5.628-2.003c-49.5 3.356-95.47 22.401-132.942 55.074-3.122 2.722-3.446 7.46-.724 10.582s7.459 3.446 10.582.724c32.951-28.731 72.944-46.174 116.091-50.721v28.302c0 4.142 3.358 7.5 7.5 7.5h30c4.142 0 7.5-3.358 7.5-7.5v-28.298c98.251 10.451 176.847 89.047 187.298 187.298h-28.298c-4.142 0-7.5 3.358-7.5 7.5v30c0 4.142 3.358 7.5 7.5 7.5h28.298c-10.451 98.251-89.047 176.847-187.298 187.298v-28.298c0-4.142-3.358-7.5-7.5-7.5h-30c-4.142 0-7.5 3.358-7.5 7.5v28.298c-98.251-10.451-176.847-89.047-187.298-187.298h28.298c4.142 0 7.5-3.358 7.5-7.5v-30c0-4.142-3.358-7.5-7.5-7.5h-28.302c4.547-43.148 21.99-83.14 50.722-116.091 2.722-3.122 2.398-7.86-.724-10.582s-7.859-2.398-10.582.724c-32.673 37.472-51.718 83.442-55.075 132.942-.141 2.072.585 4.11 2.003 5.628s3.403 2.379 5.48 2.379h28.978v15h-28.978c-2.077 0-4.062.861-5.48 2.379s-2.144 3.556-2.003 5.628c3.689 54.391 27.009 105.634 65.664 144.289s89.898 61.975 144.289 65.664c2.067.138 4.11-.584 5.628-2.003s2.379-3.403 2.379-5.48v-28.977h15v28.978c0 2.077.861 4.062 2.379 5.48 1.394 1.302 3.226 2.02 5.12 2.02.169 0 .338-.006.508-.017 54.391-3.689 105.634-27.009 144.289-65.664s61.975-89.898 65.664-144.289c.141-2.072-.585-4.11-2.003-5.628-1.417-1.519-3.401-2.38-5.478-2.38z"/></g></svg>