<svg id="Layer_1" enable-background="new 0 0 512 512" height="512" viewBox="0 0 512 512" width="512" xmlns="http://www.w3.org/2000/svg"><g><g><path d="m40.634 40.634c-18.299 0-33.132 14.834-33.132 33.132v298.203c0 18.299 14.834 33.132 33.132 33.132h430.732c18.298 0 33.132-14.834 33.132-33.132v-298.203c0-18.299-14.834-33.132-33.132-33.132z" fill="#5b7fa0"/><path d="m471.366 40.634h-23c18.299 0 33.132 14.834 33.132 33.132v298.203c0 18.299-14.834 33.132-33.132 33.132h23c18.299 0 33.132-14.834 33.132-33.132v-298.203c0-18.299-14.834-33.132-33.132-33.132z" fill="#4a6f99"/><g><g><g><path d="m326.409 471.363-8.284-66.263v-8.1h-124.251v8.1l-8.283 66.263v9.304h140.818z" fill="#bec8f7"/></g></g></g><path d="m40.633 338.835v-256.784c0-4.575 3.708-8.283 8.283-8.283h414.168c4.575 0 8.283 3.709 8.283 8.283v256.783h-430.734z" fill="#77dfff"/><path d="m463.084 73.768h-23.002c4.575 0 8.283 3.709 8.283 8.283v256.783h23.002v-256.783c0-4.574-3.708-8.283-8.283-8.283z" fill="#69cdff"/><path d="m363.967 471.368h-215.933c-4.418 0-8 3.582-8 8v17.132c0 4.418 3.582 8 8 8h215.933c4.418 0 8-3.582 8-8v-17.132c0-4.418-3.582-8-8-8z" fill="#e9efff"/><path d="m363.967 471.368h-23c4.418 0 8 3.582 8 8v17.132c0 4.418-3.582 8-8 8h23c4.418 0 8-3.582 8-8v-17.132c0-4.418-3.582-8-8-8z" fill="#d3dcfb"/><path d="m504.498 371.969v-33.133h-496.997v33.133c0 18.299 14.834 33.132 33.132 33.132h430.732c18.299 0 33.133-14.834 33.133-33.132z" fill="#e9efff"/><path d="m481.498 371.969c0 18.299-14.834 33.132-33.132 33.132h23c18.299 0 33.132-14.834 33.132-33.132v-33.133h-23z" fill="#d3dcfb"/><path d="m421.666 338.835h-331.332v-315.335c0-8.837 7.163-16 16-16h299.333c8.837 0 16 7.163 16 16v315.335z" fill="#e9efff"/><path d="m405.666 7.5h-23c8.837 0 16 7.163 16 16v315.335h23v-315.335c0-8.836-7.163-16-16-16z" fill="#d3dcfb"/><circle cx="355.4" cy="90.334" fill="#89e56a" r="33.133"/><g><path d="m305.7 239.433v36.133h-182.233v-36.133c0-36.598 29.669-66.267 66.267-66.267h49.699c36.598.001 66.267 29.669 66.267 66.267z" fill="#368df6"/><path d="m239.433 173.167h-23c36.598 0 66.267 29.669 66.267 66.267v36.133h23v-36.133c0-36.599-29.669-66.267-66.267-66.267z" fill="#336fe7"/><path d="m231.15 40.634c18.299 0 33.133 14.834 33.133 33.133v49.7c0 27.449-22.251 49.7-49.7 49.7s-49.7-22.251-49.7-49.7c0-3.187 0-49.7 0-49.7 0-18.299 14.834-33.133 33.133-33.133z" fill="#ffc2a3"/><path d="m264.283 73.767c0-18.299-14.834-33.133-33.133-33.133h-23c18.299 0 33.133 14.834 33.133 33.133v49.7c0 23.488-16.299 43.157-38.2 48.348 3.693.875 7.54 1.352 11.5 1.352 27.448 0 49.7-22.251 49.7-49.7 0-3.187 0-49.7 0-49.7z" fill="#ffb294"/><path d="m189.734 173.167 18.45 24.6c3.2 4.267 9.6 4.267 12.8 0l18.45-24.6z" fill="#e9efff"/><path d="m231.15 40.633h-33.133c-18.299 0-33.133 14.834-33.133 33.133v24.85h99.4c0-12.439 0-24.85 0-24.85-.001-18.298-14.835-33.133-33.134-33.133z" fill="#ffc55e"/><path d="m241.283 73.767v24.85h23c0-2.333 0-4.663 0-6.912 0-2.49 0-4.876 0-7.052 0-6.343 0-10.885 0-10.885 0-18.299-14.834-33.133-33.133-33.133h-23c18.299-.002 33.133 14.833 33.133 33.132z" fill="#ffa438"/></g><g><path d="m90.334 272.567h331.333v66.269h-331.333z" fill="#bec8f7"/><path d="m398.666 272.567h23v66.267h-23z" fill="#a2b6f4"/><path d="m90.334 272.567h66.267v66.268h-66.267z" fill="#ff6c6c"/></g></g><g><path d="m512 338.835c0-.013-.002-.026-.002-.039v-150.63c0-4.143-3.358-7.5-7.5-7.5s-7.5 3.357-7.5 7.5v143.169h-18.131v-249.283c0-8.703-7.081-15.783-15.783-15.783h-33.918v-18.135h42.199c14.134 0 25.632 11.498 25.632 25.632v84.4c0 4.143 3.358 7.5 7.5 7.5s7.5-3.357 7.5-7.5v-84.4c0-22.404-18.227-40.632-40.632-40.632h-42.199v-9.634c0-12.958-10.542-23.5-23.5-23.5h-299.332c-12.958 0-23.5 10.542-23.5 23.5v9.634h-42.2c-22.405 0-40.632 18.228-40.632 40.632v265.04c0 .01-.002.019-.002.029s.001.019.002.029v33.105c0 22.405 18.228 40.633 40.632 40.633h34.699c4.142 0 7.5-3.357 7.5-7.5s-3.358-7.5-7.5-7.5h-34.699c-14.134 0-25.632-11.499-25.632-25.633v-25.634h75.332 331.333 75.331v25.634c0 14.134-11.498 25.633-25.632 25.633h-153.386c-.009 0-.018 0-.027 0h-45.367c-.007 0-.013-.001-.019-.001s-.013.001-.019.001h-33.095c-.007 0-.013-.001-.019-.001s-.013.001-.019.001h-45.374c-.003 0-.006 0-.009 0h-88.699c-4.142 0-7.5 3.357-7.5 7.5s3.358 7.5 7.5 7.5h80.045l-6.409 51.267h-38.935c-4.142 0-7.5 3.357-7.5 7.5v33.131c0 4.143 3.358 7.5 7.5 7.5h231.933c4.142 0 7.5-3.357 7.5-7.5v-33.132c0-4.143-3.358-7.5-7.5-7.5h-38.937l-6.409-51.267h144.744c22.405 0 40.632-18.228 40.632-40.633v-33.095c.001-.012.003-.025.003-.038zm-48.916-257.566c.432 0 .783.352.783.783v249.283h-34.701v-250.066zm-365.25-57.769c0-4.687 3.813-8.5 8.5-8.5h299.333c4.687 0 8.5 3.813 8.5 8.5v241.566h-100.967v-25.633c0-36.417-26.533-66.736-61.28-72.688 12.151-10.497 19.863-26 19.863-43.279v-49.7c0-22.405-18.228-40.633-40.633-40.633h-33.133c-22.405 0-40.633 18.228-40.633 40.633v24.846.005.005 24.845c0 17.279 7.712 32.782 19.863 43.279-34.746 5.952-61.28 36.27-61.28 72.688v25.633h-18.133zm33.133 241.566v-25.633c0-31.175 24.404-56.746 55.111-58.641l21.006 28.008v56.267h-76.117zm41.416-191.299c0-14.134 11.499-25.633 25.633-25.633h33.133c14.134 0 25.633 11.499 25.633 25.633v17.351h-51.267v-9.066c0-4.143-3.358-7.5-7.5-7.5s-7.5 3.357-7.5 7.5v9.066h-18.133zm84.4 32.35v17.35c0 23.27-18.931 42.2-42.2 42.2s-42.2-18.931-42.2-42.2v-17.35zm-42.2 87.683-9.85-13.133h19.699zm7.5 15 21.006-28.008c30.706 1.895 55.111 27.466 55.111 58.641v25.633h-76.116v-56.266zm-139.249 122.535h-34.701v-249.283c0-.432.352-.783.783-.783h33.918zm-67.832-257.569c0-14.134 11.498-25.632 25.632-25.632h42.2v18.135h-33.918c-8.703 0-15.783 7.08-15.783 15.783v249.283h-18.131zm82.832 206.3h25.634 25.632v51.269h-51.266zm66.266 51.269v-51.269h141.6 108.467v51.269zm82.834 81.267h18.133v18.132h-18.133zm117.533 84.398h-216.933v-18.132h216.933zm-46.553-33.132h-123.828l6.409-51.267h31.439v25.632c0 4.143 3.358 7.5 7.5 7.5h33.133c4.142 0 7.5-3.357 7.5-7.5v-25.632h31.438z"/><path d="m127.608 298.2h-8.283c-4.142 0-7.5 3.357-7.5 7.5s3.358 7.5 7.5 7.5h8.283c4.142 0 7.5-3.357 7.5-7.5s-3.357-7.5-7.5-7.5z"/><path d="m388.533 298.2h-198.8c-4.142 0-7.5 3.357-7.5 7.5s3.358 7.5 7.5 7.5h198.8c4.142 0 7.5-3.357 7.5-7.5s-3.358-7.5-7.5-7.5z"/><path d="m355.4 130.967c22.405 0 40.633-18.227 40.633-40.633s-18.228-40.634-40.633-40.634-40.633 18.229-40.633 40.634 18.228 40.633 40.633 40.633zm0-66.267c14.134 0 25.633 11.499 25.633 25.634 0 14.134-11.499 25.633-25.633 25.633s-25.633-11.499-25.633-25.633c0-14.135 11.499-25.634 25.633-25.634z"/></g></g></svg>